HIERARCHY
ROOT Model
{
	OFFSET 0.000000 0.000000 0.000000 
	CHANNELS 6 Xposition Yposition Zposition Zrotation Xrotation Yrotation
	JOINT Model1
	{
		OFFSET 0.000000 -0.563698 0.748457 
		CHANNELS 3 Zrotation Xrotation Yrotation
		JOINT Model2
		{
			OFFSET 3.027750 0.000000 0.000000 
			CHANNELS 3 Zrotation Xrotation Yrotation
			JOINT Model3
			{
				OFFSET 2.887550 0.000000 0.000000 
				CHANNELS 3 Zrotation Xrotation Yrotation
				JOINT Model4
				{
					OFFSET 2.945250 0.000000 0.000000 
					CHANNELS 3 Zrotation Xrotation Yrotation
					JOINT Model5
					{
						OFFSET 5.015025 0.000000 0.000000 
						CHANNELS 3 Zrotation Xrotation Yrotation
						JOINT Model6
						{
							OFFSET 2.799050 0.000000 0.000000 
							CHANNELS 3 Zrotation Xrotation Yrotation
							End Site
							{
								OFFSET 0.000000 0.000000 0.000000 
							}
						}
					}
					JOINT Model7
					{
						OFFSET 2.705575 0.104384 0.877785 
						CHANNELS 3 Zrotation Xrotation Yrotation
						JOINT Model8
						{
							OFFSET -1.519858 0.000000 0.000000 
							CHANNELS 3 Zrotation Xrotation Yrotation
							JOINT Model9
							{
								OFFSET -0.069353 2.597500 -0.012811 
								CHANNELS 3 Zrotation Xrotation Yrotation
								JOINT Model10
								{
									OFFSET -0.859775 -0.070511 0.466695 
									CHANNELS 3 Zrotation Xrotation Yrotation
									JOINT Model11
									{
										OFFSET 3.256725 0.000000 0.000000 
										CHANNELS 3 Zrotation Xrotation Yrotation
										JOINT Model12
										{
											OFFSET 2.721650 0.000000 0.000000 
											CHANNELS 3 Zrotation Xrotation Yrotation
											JOINT Model13
											{
												OFFSET 4.182925 0.000000 0.000000 
												CHANNELS 3 Zrotation Xrotation Yrotation
												JOINT Model14
												{
													OFFSET 2.957300 0.000000 0.000000 
													CHANNELS 3 Zrotation Xrotation Yrotation
													JOINT Model15
													{
														OFFSET 1.206877 -0.933915 -0.209129 
														CHANNELS 3 Zrotation Xrotation Yrotation
														JOINT Model16
														{
															OFFSET 0.938277 -0.014573 -0.004662 
															CHANNELS 3 Zrotation Xrotation Yrotation
															JOINT Model17
															{
																OFFSET 0.721722 0.004808 0.003700 
																CHANNELS 3 Zrotation Xrotation Yrotation
																End Site
																{
																	OFFSET 0.000000 0.000000 0.000000 
																}
															}
														}
													}
													JOINT Model18
													{
														OFFSET 2.430495 -0.766145 0.059691 
														CHANNELS 3 Zrotation Xrotation Yrotation
														JOINT Model19
														{
															OFFSET 1.152828 0.000000 0.000000 
															CHANNELS 3 Zrotation Xrotation Yrotation
															JOINT Model20
															{
																OFFSET 0.724225 -0.000003 0.000000 
																CHANNELS 3 Zrotation Xrotation Yrotation
																End Site
																{
																	OFFSET 0.000000 0.000000 0.000000 
																}
															}
														}
													}
													JOINT Model21
													{
														OFFSET 2.386075 -0.186266 0.147234 
														CHANNELS 3 Zrotation Xrotation Yrotation
														JOINT Model22
														{
															OFFSET 1.334945 0.000000 0.000000 
															CHANNELS 3 Zrotation Xrotation Yrotation
															JOINT Model23
															{
																OFFSET 0.759048 0.000003 0.000000 
																CHANNELS 3 Zrotation Xrotation Yrotation
																End Site
																{
																	OFFSET 0.000000 0.000000 0.000000 
																}
															}
														}
													}
													JOINT Model24
													{
														OFFSET 2.369397 0.378215 0.121280 
														CHANNELS 3 Zrotation Xrotation Yrotation
														JOINT Model25
														{
															OFFSET 1.240340 0.000003 0.000000 
															CHANNELS 3 Zrotation Xrotation Yrotation
															JOINT Model26
															{
																OFFSET 0.629912 0.000000 0.000000 
																CHANNELS 3 Zrotation Xrotation Yrotation
																End Site
																{
																	OFFSET 0.000000 0.000000 0.000000 
																}
															}
														}
													}
													JOINT Model27
													{
														OFFSET 2.335620 0.835293 -0.059820 
														CHANNELS 3 Zrotation Xrotation Yrotation
														JOINT Model28
														{
															OFFSET 0.820647 0.000007 0.000000 
															CHANNELS 3 Zrotation Xrotation Yrotation
															JOINT Model29
															{
																OFFSET 0.532300 0.000000 0.000000 
																CHANNELS 3 Zrotation Xrotation Yrotation
																End Site
																{
																	OFFSET 0.000000 0.000000 0.000000 
																}
															}
														}
													}
												}
											}
										}
									}
								}
							}
						}
					}
					JOINT Model30
					{
						OFFSET 2.705575 0.104476 -0.877768 
						CHANNELS 3 Zrotation Xrotation Yrotation
						JOINT Model31
						{
							OFFSET 1.519858 0.000000 0.000000 
							CHANNELS 3 Zrotation Xrotation Yrotation
							JOINT Model32
							{
								OFFSET 0.069353 -2.597500 0.012811 
								CHANNELS 3 Zrotation Xrotation Yrotation
								JOINT Model33
								{
									OFFSET 0.859775 0.070511 -0.466695 
									CHANNELS 3 Zrotation Xrotation Yrotation
									JOINT Model34
									{
										OFFSET -3.256725 0.000000 0.000000 
										CHANNELS 3 Zrotation Xrotation Yrotation
										JOINT Model35
										{
											OFFSET -2.721650 0.000000 0.000000 
											CHANNELS 3 Zrotation Xrotation Yrotation
											JOINT Model36
											{
												OFFSET -4.182925 0.000000 0.000000 
												CHANNELS 3 Zrotation Xrotation Yrotation
												JOINT Model37
												{
													OFFSET -2.957300 0.000000 0.000000 
													CHANNELS 3 Zrotation Xrotation Yrotation
													JOINT Model38
													{
														OFFSET -1.206877 0.933915 0.209129 
														CHANNELS 3 Zrotation Xrotation Yrotation
														JOINT Model39
														{
															OFFSET -0.938277 0.014571 0.004661 
															CHANNELS 3 Zrotation Xrotation Yrotation
															JOINT Model40
															{
																OFFSET -0.721720 -0.004809 -0.003700 
																CHANNELS 3 Zrotation Xrotation Yrotation
																End Site
																{
																	OFFSET 0.000000 0.000000 0.000000 
																}
															}
														}
													}
													JOINT Model41
													{
														OFFSET -2.430492 0.766147 -0.059692 
														CHANNELS 3 Zrotation Xrotation Yrotation
														JOINT Model42
														{
															OFFSET -1.152825 0.000000 0.000000 
															CHANNELS 3 Zrotation Xrotation Yrotation
															JOINT Model43
															{
																OFFSET -0.724225 0.000000 0.000000 
																CHANNELS 3 Zrotation Xrotation Yrotation
																End Site
																{
																	OFFSET 0.000000 0.000000 0.000000 
																}
															}
														}
													}
													JOINT Model44
													{
														OFFSET -2.386075 0.186266 -0.147235 
														CHANNELS 3 Zrotation Xrotation Yrotation
														JOINT Model45
														{
															OFFSET -1.334945 0.000000 0.000000 
															CHANNELS 3 Zrotation Xrotation Yrotation
															JOINT Model46
															{
																OFFSET -0.759048 -0.000004 0.000000 
																CHANNELS 3 Zrotation Xrotation Yrotation
																End Site
																{
																	OFFSET 0.000000 0.000000 0.000000 
																}
															}
														}
													}
													JOINT Model47
													{
														OFFSET -2.369397 -0.378215 -0.121281 
														CHANNELS 3 Zrotation Xrotation Yrotation
														JOINT Model48
														{
															OFFSET -1.240340 -0.000004 0.000000 
															CHANNELS 3 Zrotation Xrotation Yrotation
															JOINT Model49
															{
																OFFSET -0.629915 0.000000 0.000000 
																CHANNELS 3 Zrotation Xrotation Yrotation
																End Site
																{
																	OFFSET 0.000000 0.000000 0.000000 
																}
															}
														}
													}
													JOINT Model50
													{
														OFFSET -2.335615 -0.835295 0.059819 
														CHANNELS 3 Zrotation Xrotation Yrotation
														JOINT Model51
														{
															OFFSET -0.820650 -0.000005 0.000000 
															CHANNELS 3 Zrotation Xrotation Yrotation
															JOINT Model52
															{
																OFFSET -0.532300 0.000000 0.000000 
																CHANNELS 3 Zrotation Xrotation Yrotation
																End Site
																{
																	OFFSET 0.000000 0.000000 0.000000 
																}
															}
														}
													}
												}
											}
										}
									}
								}
							}
						}
					}
				}
			}
		}
	}
	JOINT Model53
	{
		OFFSET 1.095065 -0.536580 -0.278790 
		CHANNELS 3 Zrotation Xrotation Yrotation
		JOINT Model54
		{
			OFFSET 0.000000 0.000000 1.237497 
			CHANNELS 3 Zrotation Xrotation Yrotation
			JOINT Model55
			{
				OFFSET 4.641050 0.000000 0.000000 
				CHANNELS 3 Zrotation Xrotation Yrotation
				JOINT Model56
				{
					OFFSET 5.322100 0.000000 0.000003 
					CHANNELS 3 Zrotation Xrotation Yrotation
					JOINT Model57
					{
						OFFSET 7.565250 0.000000 0.000000 
						CHANNELS 3 Zrotation Xrotation Yrotation
						JOINT Model58
						{
							OFFSET 2.931475 0.000000 0.000000 
							CHANNELS 3 Zrotation Xrotation Yrotation
							JOINT Model59
							{
								OFFSET 2.670500 0.000000 0.000000 
								CHANNELS 3 Zrotation Xrotation Yrotation
								End Site
								{
									OFFSET 0.000000 0.000000 0.000000 
								}
							}
						}
					}
				}
			}
		}
	}
	JOINT Model60
	{
		OFFSET -1.095065 -0.536580 -0.278790 
		CHANNELS 3 Zrotation Xrotation Yrotation
		JOINT Model61
		{
			OFFSET 0.000000 0.000000 -1.237497 
			CHANNELS 3 Zrotation Xrotation Yrotation
			JOINT Model62
			{
				OFFSET -4.641050 0.000000 0.000000 
				CHANNELS 3 Zrotation Xrotation Yrotation
				JOINT Model63
				{
					OFFSET -5.322100 0.000000 -0.000003 
					CHANNELS 3 Zrotation Xrotation Yrotation
					JOINT Model64
					{
						OFFSET -7.565250 0.000000 0.000000 
						CHANNELS 3 Zrotation Xrotation Yrotation
						JOINT Model65
						{
							OFFSET -2.931475 0.000000 0.000000 
							CHANNELS 3 Zrotation Xrotation Yrotation
							JOINT Model66
							{
								OFFSET -2.670500 0.000000 0.000000 
								CHANNELS 3 Zrotation Xrotation Yrotation
								End Site
								{
									OFFSET 0.000000 0.000000 0.000000 
								}
							}
						}
					}
				}
			}
		}
	}
}
MOTION
Frames: 4
Frame Time: 0.033333
-3.315899 22.984240 1.225202 -78.407928 -27.594519 -87.121994 -180.000000 -0.000000 -90.000000 8.061320 0.213545 -4.190700 16.116600 -0.163171 -8.369940 16.116600 -0.162751 -8.370060 17.003401 7.162990 24.112900 -25.737700 15.593900 -21.389000 120.092003 75.534302 58.493900 20.121700 -26.710501 -6.691990 -167.276993 84.499901 48.810902 76.220802 -1.040110 -47.398899 0.000024 -40.286499 0.000031 -125.400002 4.302000 0.498107 0.000000 6.767760 0.000000 -21.771700 -9.675030 47.505901 -72.064796 39.038502 39.339699 33.363800 2.103620 14.835000 0.588947 0.308273 6.352870 -99.640900 81.413002 100.349998 -0.018141 0.000028 -0.117315 -0.124139 0.002411 -0.799296 -79.838203 79.577301 80.537399 -0.000226 -0.000221 0.000022 -0.000956 0.000123 -0.000027 -66.741600 80.405800 67.217102 -0.000437 0.000016 -0.000027 -0.000137 -0.000109 -0.000055 -6.421590 81.215797 8.017790 -0.000219 0.000017 0.000212 0.000902 -0.000185 -0.000219 -59.928200 75.537300 58.514702 -0.731448 31.823000 10.296400 -167.276993 84.499901 48.810902 136.332001 -12.482400 11.469500 0.000006 1.740130 0.000030 -148.237000 2.290190 0.320968 -0.000001 4.367670 0.000000 -0.052589 0.002475 -5.388530 -72.064796 39.038502 39.339699 33.363800 2.103610 14.835000 0.588946 0.308273 6.352870 -99.640900 81.413002 100.349998 -0.018141 0.000030 -0.117315 -0.124139 0.002411 -0.799296 -79.838203 79.577301 80.537399 -0.000261 -0.000219 0.000024 -0.000956 0.000123 -0.000027 -66.741600 80.405800 67.217102 -0.000437 0.000015 -0.000027 -0.000137 -0.000109 -0.000055 -6.421590 81.215797 8.017790 -0.000219 0.000020 0.000212 0.000902 -0.000191 -0.000219 0.000815 0.566610 89.910004 -45.437599 -10.680300 -41.614498 -0.000007 -7.319040 -0.000001 55.767799 11.028100 -0.007050 0.000000 16.442301 0.000000 -19.351999 -8.879930 12.994400 -43.376499 -0.131648 -0.570467 -180.000000 -0.566576 -90.089996 -44.872898 10.482600 -10.997300 0.000002 18.070499 -0.000000 79.535599 14.435900 -0.008212 0.000001 21.532900 0.000002 -36.980499 -7.212970 7.275510 -76.409897 13.215600 6.323600 
-3.256974 22.377743 1.662829 -78.386627 -26.954721 -85.896194 -180.000000 -0.000000 -90.000000 7.867730 0.305133 -3.751000 15.738500 0.093215 -7.508450 15.738500 0.093636 -7.508570 20.606800 8.443040 22.655600 -26.637600 16.817900 -23.134800 120.092003 75.534302 58.493900 21.768900 -28.181000 -6.747310 -167.276993 84.499901 48.810902 74.429901 5.093380 -47.492901 0.000021 -35.293400 0.000029 -123.908997 5.885610 0.508471 0.000000 9.104910 0.000000 -24.936800 -9.647780 41.780300 -72.064796 39.038502 39.339699 33.363800 2.103620 14.835000 0.588947 0.308273 6.352870 -99.640900 81.413002 100.349998 -0.018141 0.000028 -0.117315 -0.124139 0.002411 -0.799296 -79.838203 79.577301 80.537399 -0.000226 -0.000221 0.000022 -0.000956 0.000123 -0.000027 -66.741600 80.405800 67.217102 -0.000437 0.000016 -0.000027 -0.000137 -0.000109 -0.000055 -6.421590 81.215797 8.017790 -0.000219 0.000017 0.000212 0.000902 -0.000185 -0.000219 -59.928200 75.537300 58.514702 0.775001 30.800900 9.305260 -167.276993 84.499901 48.810902 141.104004 -11.980700 15.604900 0.000005 2.620330 0.000030 -149.419998 2.660030 0.310301 -0.000001 4.955140 0.000000 -0.052589 0.002475 -5.388530 -72.064796 39.038502 39.339699 33.363800 2.103610 14.835000 0.588946 0.308273 6.352870 -99.640900 81.413002 100.349998 -0.018141 0.000030 -0.117315 -0.124139 0.002411 -0.799296 -79.838203 79.577301 80.537399 -0.000261 -0.000219 0.000024 -0.000956 0.000123 -0.000027 -66.741600 80.405800 67.217102 -0.000437 0.000015 -0.000027 -0.000137 -0.000109 -0.000055 -6.421590 81.215797 8.017790 -0.000219 0.000020 0.000212 0.000902 -0.000191 -0.000219 0.000815 0.566610 89.910004 -46.621498 -10.136300 -42.753601 -0.000007 -6.936840 -0.000001 59.996399 11.348900 -0.007293 0.000000 16.918301 0.000000 -26.760201 -6.467730 8.343720 -51.259602 -3.032710 -1.735540 -180.000000 -0.566576 -90.089996 -41.993401 11.129400 -10.008200 0.000002 19.209999 -0.000000 79.345398 14.307500 -0.008237 0.000001 21.340401 0.000002 -43.917198 -3.892710 3.337950 -82.909401 8.251280 3.542760 
-3.209849 21.679245 2.087030 -78.665520 -26.698721 -85.746689 -180.000000 -0.000000 -90.000000 7.772360 0.337308 -3.573270 15.550600 0.187502 -7.159320 15.550600 0.187924 -7.159440 21.877399 8.901950 21.011000 -25.926800 17.158199 -24.243099 120.092003 75.534302 58.493900 22.837700 -29.614201 -6.818680 -167.276993 84.499901 48.810902 72.172501 6.776280 -45.278801 0.000020 -33.102299 0.000028 -124.117996 7.239670 0.508677 0.000000 11.141100 0.000000 -26.620899 -9.872820 40.111801 -72.064796 39.038502 39.339699 33.363800 2.103620 14.835000 0.588947 0.308273 6.352870 -99.640900 81.413002 100.349998 -0.018141 0.000028 -0.117315 -0.124139 0.002411 -0.799296 -79.838203 79.577301 80.537399 -0.000226 -0.000221 0.000022 -0.000956 0.000123 -0.000027 -66.741600 80.405800 67.217102 -0.000437 0.000016 -0.000027 -0.000137 -0.000109 -0.000055 -6.421590 81.215797 8.017790 -0.000219 0.000017 0.000212 0.000902 -0.000185 -0.000219 -59.928200 75.537300 58.514702 2.081910 30.157600 8.540410 -167.276993 84.499901 48.810902 143.313004 -11.219500 18.323700 0.000005 3.702390 0.000030 -150.222000 3.066410 0.303051 -0.000001 5.586860 0.000000 -0.052589 0.002475 -5.388530 -72.064796 39.038502 39.339699 33.363800 2.103610 14.835000 0.588946 0.308273 6.352870 -99.640900 81.413002 100.349998 -0.018141 0.000030 -0.117315 -0.124139 0.002411 -0.799296 -79.838203 79.577301 80.537399 -0.000261 -0.000219 0.000024 -0.000956 0.000123 -0.000027 -66.741600 80.405800 67.217102 -0.000437 0.000015 -0.000027 -0.000137 -0.000109 -0.000055 -6.421590 81.215797 8.017790 -0.000219 0.000020 0.000212 0.000902 -0.000191 -0.000219 0.000815 0.566610 89.910004 -47.562801 -9.168700 -42.559200 -0.000007 -6.066150 -0.000001 64.990303 11.882400 -0.007634 0.000000 17.713200 0.000000 -36.840302 -2.046830 2.345670 -53.216099 -8.123890 -3.167200 -180.000000 -0.566576 -90.089996 -38.956902 12.632000 -10.373000 0.000002 21.948601 -0.000000 82.235298 13.285100 -0.008233 0.000001 19.805700 0.000001 -62.657501 1.371720 -1.557150 -71.200996 1.148480 -2.100010 
-3.126574 20.952997 2.462379 -79.143028 -27.224325 -86.751991 -180.000000 -0.000000 -90.000000 7.834660 0.282237 -3.795170 15.670700 0.043831 -7.593380 15.670700 0.044252 -7.593500 20.229799 8.066600 21.733101 -23.932100 16.357300 -24.863701 120.092003 75.534302 58.493900 23.990601 -29.703199 -6.697420 -167.276993 84.499901 48.810902 69.750000 5.438180 -43.319801 0.000021 -34.847500 0.000029 -127.099998 7.359500 0.490232 0.000000 11.397300 0.000000 -23.394699 -9.139510 42.217400 -72.064796 39.038502 39.339699 33.363800 2.103620 14.835000 0.588947 0.308273 6.352870 -99.640900 81.413002 100.349998 -0.018141 0.000028 -0.117315 -0.124139 0.002411 -0.799296 -79.838203 79.577301 80.537399 -0.000226 -0.000221 0.000022 -0.000956 0.000123 -0.000027 -66.741600 80.405800 67.217102 -0.000437 0.000016 -0.000027 -0.000137 -0.000109 -0.000055 -6.421590 81.215797 8.017790 -0.000219 0.000017 0.000212 0.000902 -0.000185 -0.000219 -59.928200 75.537300 58.514702 2.311430 29.270599 8.189790 -167.276993 84.499901 48.810902 142.682007 -10.849200 18.775499 0.000004 4.376860 0.000030 -150.634003 3.297610 0.299313 -0.000001 5.945030 0.000000 -0.052589 0.002475 -5.388530 -72.064796 39.038502 39.339699 33.363800 2.103610 14.835000 0.588946 0.308273 6.352870 -99.640900 81.413002 100.349998 -0.018141 0.000030 -0.117315 -0.124139 0.002411 -0.799296 -79.838203 79.577301 80.537399 -0.000261 -0.000219 0.000024 -0.000956 0.000123 -0.000027 -66.741600 80.405800 67.217102 -0.000437 0.000015 -0.000027 -0.000137 -0.000109 -0.000055 -6.421590 81.215797 8.017790 -0.000219 0.000020 0.000212 0.000902 -0.000191 -0.000219 0.000815 0.566610 89.910004 -48.494900 -7.711270 -41.098202 -0.000007 -4.675770 -0.000001 70.030098 11.891100 -0.007975 0.000000 17.721800 0.000000 -48.337502 0.992686 -0.945814 -47.536400 -11.493300 -2.355310 -180.000000 -0.566576 -90.089996 -38.267200 14.375600 -11.189500 0.000002 24.868601 -0.000000 85.653900 12.812800 -0.008250 0.000001 19.096500 0.000001 -68.322701 -0.519345 -0.654014 -70.652100 0.694331 -2.330980 
